# xmcd
#
# Track frame offsets: 
#        150
#        15045
#        30374
#        46752
#        70357
#        97618
#        114663
#        129428
#        144978
#        163612
#        182602
#
# Disc length: 2646 seconds
#
# Revision: 0
# Processed by: cddbd v1.5.2PL0 Copyright (c) Steve Scherf et al.
# Submitted via: ExactAudioCopy v1.0b4
#
DISCID=780a540b
DTITLE=JJ Appleton and Jason Ricci - Dirty Memory
DYEAR=2015
DGENRE=Blues
TTITLE0=Leaning Blues
TTITLE1=Nobody's Fault But Mine
TTITLE2=Can't Believe it's This Good
TTITLE3=New Man
TTITLE4=Jason Solo
TTITLE5=Just Enough
TTITLE6=At The Wheel Again
TTITLE7=Black Limousine
TTITLE8=Demon Lover
TTITLE9=It Ain't No Use
TTITLE10=Come On Over, Come On By
EXTD=
EXTT0=
EXTT1=
EXTT2=
EXTT3=
EXTT4=
EXTT5=
EXTT6=
EXTT7=
EXTT8=
EXTT9=
EXTT10=
PLAYORDER=
